HIERARCHY
ROOT root
{
	OFFSET 0.000000 0.000000 0.000000
	CHANNELS 6 Xposition Yposition Zposition Zrotation Yrotation Xrotation
	JOINT lhip
	{
		OFFSET 0.058581 -0.082280 -0.017664
		CHANNELS 3 Zrotation Yrotation Xrotation
		JOINT lknee
		{
			OFFSET 0.043451 -0.386469 0.008037
			CHANNELS 3 Zrotation Yrotation Xrotation
			JOINT lankle
			{
				OFFSET -0.014790 -0.426874 -0.037428
				CHANNELS 3 Zrotation Yrotation Xrotation
				JOINT ltoe
				{
					OFFSET 0.041054 -0.060286 0.122042
					CHANNELS 3 Zrotation Yrotation Xrotation
					End Site
					{
						OFFSET 0.000000 0.000000 0.000000
					}
				}
			}
		}
	}
	JOINT rhip
	{
		OFFSET -0.060310 -0.090513 -0.013543
		CHANNELS 3 Zrotation Yrotation Xrotation
		JOINT rknee
		{
			OFFSET -0.043257 -0.383688 -0.004843
			CHANNELS 3 Zrotation Yrotation Xrotation
			JOINT rankle
			{
				OFFSET 0.019056 -0.420046 -0.034562
				CHANNELS 3 Zrotation Yrotation Xrotation
				JOINT rtoe
				{
					OFFSET -0.034840 -0.062106 0.130323
					CHANNELS 3 Zrotation Yrotation Xrotation
					End Site
					{
						OFFSET 0.000000 0.000000 0.000000
					}
				}
			}
		}
	}
	JOINT lowerback
	{
		OFFSET 0.004439 0.124404 -0.038385
		CHANNELS 3 Zrotation Yrotation Xrotation
		JOINT upperback
		{
			OFFSET 0.004488 0.137956 0.026820
			CHANNELS 3 Zrotation Yrotation Xrotation
			JOINT chest
			{
				OFFSET -0.002265 0.056032 0.002855
				CHANNELS 3 Zrotation Yrotation Xrotation
				JOINT lowerneck
				{
					OFFSET -0.013390 0.211636 -0.033468
					CHANNELS 3 Zrotation Yrotation Xrotation
					JOINT upperneck
					{
						OFFSET 0.010113 0.088937 0.050410
						CHANNELS 3 Zrotation Yrotation Xrotation
						End Site
						{
							OFFSET 0.000000 0.000000 0.000000
						}
					}
				}
				JOINT lclavicle
				{
					OFFSET 0.071702 0.114000 -0.018898
					CHANNELS 3 Zrotation Yrotation Xrotation
					JOINT lshoulder
					{
						OFFSET 0.122921 0.045205 -0.019046
						CHANNELS 3 Zrotation Yrotation Xrotation
						JOINT lelbow
						{
							OFFSET 0.255332 -0.015649 -0.022946
							CHANNELS 3 Zrotation Yrotation Xrotation
							JOINT lwrist
							{
								OFFSET 0.265709 0.012698 -0.007375
								CHANNELS 3 Zrotation Yrotation Xrotation
								End Site
								{
									OFFSET 0.000000 0.000000 0.000000
								}
							}
						}
					}
				}
				JOINT rclavicle
				{
					OFFSET -0.082954 0.112472 -0.023707
					CHANNELS 3 Zrotation Yrotation Xrotation
					JOINT rshoulder
					{
						OFFSET -0.113228 0.046853 -0.008472
						CHANNELS 3 Zrotation Yrotation Xrotation
						JOINT relbow
						{
							OFFSET -0.260127 -0.014369 -0.031269
							CHANNELS 3 Zrotation Yrotation Xrotation
							JOINT rwrist
							{
								OFFSET -0.269108 0.006794 -0.006027
								CHANNELS 3 Zrotation Yrotation Xrotation
								End Site
								{
									OFFSET 0.000000 0.000000 0.000000
								}
							}
						}
					}
				}
			}
		}
	}
}
MOTION
Frames: 10
Frame Time: 0.033333
0.063400 0.248485 1.010946 90.666823 -2.541851 104.936293 0.021407 -1.123622 -13.256832 2.909187 7.427740 1.598477 -0.361294 4.820958 -3.991646 0.000000 -0.000000 0.000000 -3.540532 -2.359634 -14.987645 -4.168489 -11.120069 -1.413028 1.487619 -6.625704 6.230755 0.000000 -0.000000 0.000000 6.256292 0.494814 12.959657 4.772101 -2.097284 9.706726 1.199514 1.125913 -8.006271 4.077399 -2.856163 -10.063302 -1.671113 -10.381310 -17.472009 -31.660552 5.372310 -8.006396 -45.329109 0.699046 16.944194 158.918125 -40.680783 -128.892186 -37.118251 -3.142398 14.689223 33.927104 5.077730 -3.293299 35.247058 11.487391 9.691802 -150.651014 50.439206 -123.706313 31.268183 -6.510461 18.111575 
0.063273 0.248856 1.010863 90.635186 -2.566257 104.943441 -0.027098 -1.121391 -13.272631 2.878112 7.289068 1.618170 -0.311942 4.978230 -3.973624 0.000000 -0.000000 0.000000 -3.602314 -2.427689 -15.013400 -4.155012 -10.958024 -1.390671 1.887303 -6.786424 6.154234 0.000000 -0.000000 0.000000 6.060783 0.465022 12.950172 4.778994 -2.122879 9.901745 1.219002 1.273658 -8.207605 4.077395 -2.996430 -9.985849 -1.602601 -10.266117 -17.415100 -31.512509 5.163508 -7.716029 -45.513818 0.711842 16.745620 158.902190 -40.647290 -128.470550 -37.108831 -3.210620 14.393438 33.850706 5.202220 -3.142899 35.273378 11.321999 9.481010 -150.659985 50.324396 -123.497101 31.399021 -6.441994 17.689505 
0.063073 0.249226 1.010920 90.638934 -2.642578 104.841984 -0.069721 -1.228050 -13.276789 2.791373 7.220663 1.825330 -0.219074 5.157984 -4.035077 0.000000 -0.000000 0.000000 -3.679493 -2.514238 -14.912091 -4.202489 -10.752998 -1.394388 2.266966 -7.000560 6.136996 0.000000 -0.000000 0.000000 5.840127 0.406468 13.127936 4.739379 -2.178426 9.996612 1.215072 1.418337 -8.314481 4.054522 -3.133736 -9.928878 -1.512152 -10.159525 -17.322338 -31.411172 4.981729 -7.505515 -45.540316 0.622139 16.593797 158.822295 -40.623527 -128.118319 -36.953509 -3.367844 14.125313 33.861003 5.309417 -3.146223 35.270761 11.138219 9.356994 -150.806166 50.166049 -123.535896 31.392008 -6.312966 17.376471 
0.062865 0.249650 1.010967 90.688432 -2.596285 104.747726 -0.014227 -1.144075 -13.380732 2.729109 7.138990 2.157616 -0.264267 5.126816 -4.180567 0.000000 -0.000000 0.000000 -3.660507 -2.548358 -14.810305 -4.170019 -10.760648 -1.403005 2.336841 -7.015902 6.089250 0.000000 -0.000000 0.000000 5.789371 0.365485 13.253170 4.699849 -2.220047 10.050636 1.225664 1.443411 -8.332331 3.984839 -2.996428 -9.785127 -1.544117 -10.031303 -17.412073 -31.375117 4.829461 -7.514077 -45.537083 0.628539 16.493217 158.832197 -40.678695 -127.884182 -36.869770 -3.648843 13.986485 33.796795 5.350511 -3.091778 35.256609 11.164738 9.195030 -150.881812 50.147800 -123.572782 31.367325 -6.112452 17.212136 
0.062675 0.249870 1.010906 90.650059 -2.579511 104.723275 0.013927 -1.118775 -13.499672 2.695682 7.152017 2.409400 -0.257533 5.157521 -4.290462 0.000000 -0.000000 0.000000 -3.659152 -2.530419 -14.806810 -4.185461 -10.709598 -1.402104 2.316753 -7.003213 6.157819 0.000000 -0.000000 0.000000 5.705790 0.407364 13.249846 4.685652 -2.229978 10.200351 1.227704 1.421883 -8.362977 4.024698 -2.995822 -9.808708 -1.530671 -10.009437 -17.415019 -31.352870 4.744483 -7.522164 -45.551202 0.599097 16.479878 158.813899 -40.628755 -127.760228 -36.812168 -3.603046 14.054684 33.779119 5.427432 -3.150423 35.247643 11.152871 9.226302 -150.749230 50.197746 -123.400489 31.287839 -6.069185 17.165507 
0.062371 0.250068 1.010840 90.619457 -2.537683 104.712887 0.083707 -1.196999 -13.678426 2.692849 7.151612 2.753942 -0.278326 5.230266 -4.408773 0.000000 -0.000000 0.000000 -3.613552 -2.502773 -14.854806 -4.225110 -10.718873 -1.331310 2.302905 -7.011363 6.121114 0.000000 -0.000000 0.000000 5.635380 0.436797 13.318853 4.638815 -2.209958 10.167123 1.212583 1.422923 -8.318812 3.920385 -2.825735 -9.652075 -1.409100 -10.006742 -17.617647 -31.259413 4.774936 -7.549915 -45.629627 0.504485 16.532588 158.815007 -40.606652 -127.793225 -36.830773 -3.456562 14.068381 33.717862 5.426448 -3.066303 35.360251 11.219939 9.194685 -150.579354 50.213054 -123.214701 31.155949 -6.114526 17.268288 
0.062084 0.250413 1.010779 90.607695 -2.541784 104.703716 0.155513 -1.151326 -13.892665 2.529105 7.213497 3.140417 -0.290933 5.187177 -4.549199 0.000000 -0.000000 0.000000 -3.654807 -2.550991 -14.894594 -4.186915 -10.713138 -1.286406 2.342244 -6.956621 6.102486 0.000000 -0.000000 0.000000 5.525338 0.486980 13.338654 4.633304 -2.222950 10.207047 1.224834 1.431695 -8.317921 3.887796 -2.770261 -9.593621 -1.472725 -9.955646 -17.612874 -31.258395 4.767565 -7.480150 -45.601706 0.427043 16.513633 158.814804 -40.661460 -127.853059 -36.825834 -3.434946 14.118764 33.728809 5.468894 -3.010399 35.283869 11.294527 9.093340 -150.469621 50.254797 -123.088610 31.270210 -6.241168 17.242061 
0.061757 0.250814 1.010764 90.643851 -2.541209 104.600948 0.222740 -1.233217 -13.998902 2.417643 7.161136 3.497677 -0.221315 5.315011 -4.698794 0.000000 -0.000000 0.000000 -3.682674 -2.606788 -14.801782 -4.162674 -10.703434 -1.278176 2.289039 -6.982146 6.066292 0.000000 -0.000000 0.000000 5.474209 0.534579 13.484516 4.591683 -2.235531 10.276870 1.217157 1.424896 -8.308789 3.893887 -2.799364 -9.739353 -1.631424 -10.025514 -17.498874 -31.230676 4.735311 -7.388620 -45.679567 0.306663 16.500038 158.839643 -40.645542 -127.908517 -36.681998 -3.478225 14.078304 33.654995 5.499813 -3.053399 35.373664 11.283176 9.060395 -150.348540 50.305363 -122.915666 31.141546 -6.243352 17.380983 
0.061379 0.251125 1.010687 90.716309 -2.539977 104.610049 0.309947 -1.312691 -14.241435 2.309150 7.162995 3.874500 -0.248359 5.293846 -4.781366 0.000000 -0.000000 0.000000 -3.690180 -2.663012 -14.834653 -4.158200 -10.737676 -1.265902 2.306230 -6.995286 6.131569 0.000000 -0.000000 0.000000 5.450185 0.550405 13.555482 4.530468 -2.250119 10.146408 1.181263 1.428863 -8.194353 3.742964 -2.696183 -9.641072 -1.621333 -9.995652 -17.586988 -31.211972 4.724817 -7.433056 -45.668294 0.283387 16.515044 158.821111 -40.676830 -127.802887 -36.470799 -3.330903 14.163958 33.715677 5.484051 -3.077556 35.392348 11.235909 9.072919 -150.397165 50.354332 -122.899583 30.925161 -6.289635 17.527491 
0.060908 0.251597 1.010562 90.796406 -2.481073 104.548853 0.414159 -1.269653 -14.564290 2.223078 7.221050 4.507748 -0.236330 5.220087 -5.064828 0.000000 -0.000000 0.000000 -3.631020 -2.686001 -14.779686 -4.171376 -10.787559 -1.299636 2.255477 -7.035048 6.159479 0.000000 -0.000000 0.000000 5.511146 0.587332 13.600117 4.475959 -2.218719 10.309411 1.120887 1.399813 -8.225094 3.529576 -2.524658 -9.768677 -1.906217 -9.996303 -17.337192 -31.065346 4.645050 -7.373949 -45.882373 0.155157 16.484114 158.820214 -40.688879 -127.634195 -36.677313 -3.253387 14.102874 33.664110 5.544127 -3.085566 35.495903 11.170219 9.081272 -150.361228 50.376191 -122.724129 30.907015 -6.436269 17.542166 
